<svg width="25" height="24" viewBox="0 0 25 24" fill="none" xmlns="http://www.w3.org/2000/svg">
<path d="M11.239 0.690968C11.5384 -0.230343 12.8418 -0.230344 13.1411 0.690967L15.3333 7.43768C15.4671 7.8497 15.8511 8.12866 16.2843 8.12866H23.3782C24.347 8.12866 24.7497 9.36828 23.966 9.93768L18.2269 14.1074C17.8764 14.362 17.7298 14.8134 17.8636 15.2254L20.0558 21.9721C20.3551 22.8934 19.3007 23.6596 18.5169 23.0902L12.7778 18.9205C12.4274 18.6658 11.9528 18.6658 11.6023 18.9205L5.86318 23.0902C5.07947 23.6596 4.02499 22.8934 4.32434 21.9721L6.51648 15.2254C6.65035 14.8134 6.5037 14.362 6.15321 14.1074L0.414114 9.93768C-0.369599 9.36828 0.0331753 8.12866 1.0019 8.12866H8.09581C8.52904 8.12866 8.91299 7.8497 9.04687 7.43768L11.239 0.690968Z" fill="#B3231E"/>
</svg>
